<?xml version="1.0" encoding="UTF-8"?>
<svg width="142px" height="29px" viewBox="0 0 142 29" version="1.1" xmlns="http://www.w3.org/2000/svg" xmlns:xlink="http://www.w3.org/1999/xlink">
    <title>Brink 50</title>
    <g id="Page-1" stroke="none" stroke-width="1" fill="none" fill-rule="evenodd">
        <g id="Brink-50" fill-rule="nonzero">
            <path d="M96.5399,0.0006 L91.0059,11.3456 L97.5739,28.3436 L97.5739,28.3456 L93.2749,28.3456 L88.6569,15.7646 L86.4679,19.8666 L86.4679,28.3456 L82.4059,28.3456 L82.4059,0.0006 L86.4679,0.0006 L86.4679,12.9396 L86.5469,12.9396 L92.4789,0.0006 L96.5399,0.0006 Z M73.1349,0.0006 L73.1349,28.3456 L69.3129,28.3456 L63.1019,11.3056 L63.0219,11.3056 L63.0219,28.3456 L58.9609,28.3456 L58.9609,0.0006 L62.8629,0.0006 L68.9939,17.0796 L69.0739,17.0796 L69.0739,0.0006 L73.1349,0.0006 Z M45.5649,28.3466 L49.6269,28.3466 L49.6269,12.1816 L45.5649,12.1816 L45.5649,28.3466 Z M22.3739,28.3466 L22.3739,-0.0004 L28.9029,-0.0004 C33.6809,-0.0004 36.0699,2.7736 36.0699,8.3206 C36.0699,9.9926 35.8099,11.4116 35.2939,12.5806 C34.7759,13.7496 33.8659,14.6896 32.5659,15.4076 L36.9459,28.3466 L32.6459,28.3466 L28.8639,16.2436 L26.4349,16.2436 L26.4349,28.3466 L22.3739,28.3466 Z M26.4349,3.8216 L26.4349,12.6606 L28.7449,12.6606 C29.4609,12.6606 30.0309,12.5616 30.4559,12.3616 C30.8809,12.1626 31.2129,11.8766 31.4519,11.5056 C31.6639,11.1326 31.8099,10.6776 31.8899,10.1306 C31.9689,9.5876 32.0089,8.9576 32.0089,8.2396 C32.0089,7.5256 31.9689,6.8946 31.8899,6.3486 C31.8099,5.8056 31.6499,5.3346 31.4119,4.9376 C30.9069,4.1936 29.9509,3.8216 28.5449,3.8216 L26.4349,3.8216 Z M-9.99999997e-05,28.3466 L-9.99999997e-05,-0.0004 L5.9329,-0.0004 C7.2329,-0.0004 8.3419,0.1986 9.2569,0.5976 C10.1729,0.9946 10.9219,1.5256 11.5069,2.1886 C12.0899,2.8546 12.5079,3.6166 12.7599,4.4786 C13.0119,5.3426 13.1389,6.2376 13.1389,7.1656 L13.1389,8.2016 C13.1389,8.9716 13.0789,9.6206 12.9589,10.1516 C12.8409,10.6836 12.6609,11.1486 12.4209,11.5446 C11.9709,12.2896 11.2799,12.9256 10.3529,13.4566 C11.3069,13.9096 12.0099,14.5706 12.4619,15.4466 C12.9129,16.3236 13.1389,17.5166 13.1389,19.0296 L13.1389,20.6236 C13.1389,23.1176 12.5339,25.0286 11.3269,26.3556 C10.1189,27.6826 8.1879,28.3466 5.5349,28.3466 L-9.99999997e-05,28.3466 Z M4.0609,3.8216 L4.0609,11.6256 L5.8919,11.6256 C7.2459,11.6256 8.1549,11.2866 8.6209,10.6106 C9.0849,9.9326 9.3169,8.9446 9.3169,7.6446 C9.3169,6.3696 9.0569,5.4146 8.5409,4.7766 C8.0229,4.1396 7.0869,3.8216 5.7339,3.8216 L4.0609,3.8216 Z M4.0609,15.2086 L4.0609,24.2856 L5.8129,24.2856 C6.6349,24.2856 7.2789,24.1666 7.7439,23.9256 C8.2079,23.6876 8.5609,23.3556 8.7989,22.9316 C9.0379,22.5086 9.1829,22.0016 9.2369,21.4196 C9.2899,20.8346 9.3169,20.1976 9.3169,19.5076 C9.3169,18.7896 9.2759,18.1686 9.1969,17.6366 C9.1169,17.1056 8.9579,16.6556 8.7189,16.2836 C8.4539,15.9116 8.0949,15.6416 7.6449,15.4676 C7.1929,15.2936 6.5949,15.2086 5.8529,15.2086 L4.0609,15.2086 Z" id="Fill-1" fill="#000000"></path>
            <polygon id="Fill-4" fill="#FF7962" points="45.566 4.0605 49.626 4.0605 49.626 0.0005 45.566 0.0005"></polygon>
            <polygon id="Fill-6" fill="#4AD4CF" points="45.566 8.1205 49.626 8.1205 49.626 4.0605 45.566 4.0605"></polygon>
            <polygon id="Fill-7" fill="#F300EC" points="45.566 12.1815 49.626 12.1815 49.626 8.1215 45.566 8.1215"></polygon>
            <polygon id="Fill-8" fill="#FF7962" points="129.489 4.0495 137.588 4.0495 137.588 0.0005 129.489 0.0005"></polygon>
            <polygon id="Fill-9" fill="#FF7962" points="129.489 28.3465 137.588 28.3465 137.588 24.2975 129.489 24.2975"></polygon>
            <polygon id="Fill-10" fill="#FF7962" points="109.241 16.1985 121.39 16.1985 121.39 12.1495 109.241 12.1495"></polygon>
            <polygon id="Fill-11" fill="#FF7962" points="125.439 16.1985 129.489 16.1985 129.489 12.1495 125.439 12.1495"></polygon>
            <polygon id="Fill-12" fill="#FF7962" points="109.241 28.3465 117.34 28.3465 117.34 24.2975 109.241 24.2975"></polygon>
            <polygon id="Fill-13" fill="#FF7962" points="105.191 4.0495 121.389 4.0495 121.389 0.0005 105.191 0.0005"></polygon>
            <polygon id="Fill-14" fill="#4AD4CF" points="105.191 8.0985 109.241 8.0985 109.241 4.0495 105.191 4.0495"></polygon>
            <polygon id="Fill-15" fill="#4AD4CF" points="125.439 8.0985 129.489 8.0985 129.489 4.0495 125.439 4.0495"></polygon>
            <polygon id="Fill-16" fill="#4AD4CF" points="125.439 20.2475 129.489 20.2475 129.489 16.1985 125.439 16.1985"></polygon>
            <polygon id="Fill-17" fill="#4AD4CF" points="137.587 8.0985 141.637 8.0985 141.637 4.0495 137.587 4.0495"></polygon>
            <polygon id="Fill-18" fill="#4AD4CF" points="117.339 20.2475 121.389 20.2475 121.389 16.1985 117.339 16.1985"></polygon>
            <polygon id="Fill-19" fill="#F300EC" points="105.191 12.1485 109.241 12.1485 109.241 8.0995 105.191 8.0995"></polygon>
            <polygon id="Fill-20" fill="#F300EC" points="125.439 12.1485 129.489 12.1485 129.489 8.0995 125.439 8.0995"></polygon>
            <polygon id="Fill-21" fill="#F300EC" points="125.439 24.2965 129.489 24.2965 129.489 20.2475 125.439 20.2475"></polygon>
            <polygon id="Fill-22" fill="#FF7962" points="137.588 16.1985 141.638 16.1985 141.638 12.1495 137.588 12.1495"></polygon>
            <polygon id="Fill-23" fill="#4AD4CF" points="137.587 20.2475 141.637 20.2475 141.637 16.1985 137.587 16.1985"></polygon>
            <polygon id="Fill-24" fill="#F300EC" points="137.587 24.2965 141.637 24.2965 141.637 20.2475 137.587 20.2475"></polygon>
            <polygon id="Fill-25" fill="#F300EC" points="137.587 12.1485 141.637 12.1485 141.637 8.0995 137.587 8.0995"></polygon>
            <polygon id="Fill-26" fill="#F300EC" points="117.339 24.2965 121.389 24.2965 121.389 20.2475 117.339 20.2475"></polygon>
            <polygon id="Fill-27" fill="#F300EC" points="105.191 24.2965 109.241 24.2965 109.241 20.2475 105.191 20.2475"></polygon>
        </g>
    </g>
</svg>